<svg width="393" height="852" viewBox="0 0 393 852" fill="none" xmlns="http://www.w3.org/2000/svg">
<g clip-path="url(#clip0_421_2002)">
<rect width="393" height="852" fill="#15463E"/>
<circle cx="219" cy="473" r="2" fill="#43C7AD"/>
<circle cx="52.5" cy="366.5" r="4.5" fill="#B5EBAE"/>
<circle cx="158.5" cy="489.5" r="4.5" fill="#B5EBAE"/>
<circle cx="315.5" cy="636.5" r="4.5" fill="#B5EBAE"/>
<circle cx="187.5" cy="774.5" r="4.5" fill="#B5EBAE"/>
<circle cx="242" cy="361" r="2" fill="#B5EBAE"/>
<circle cx="77" cy="201" r="2" fill="#FEE4D4"/>
<circle cx="46" cy="117" r="2" fill="#43C7AD"/>
<circle cx="71.5" cy="70.5" r="1.5" fill="#B5EBAE"/>
<circle cx="100.5" cy="155.5" r="4.5" fill="#FEE4D4"/>
<circle cx="296.5" cy="111.5" r="4.5" fill="#FEE4D4"/>
<circle cx="255.5" cy="597.5" r="4.5" fill="#FEE4D4"/>
<circle cx="341.5" cy="201.5" r="2.5" fill="#FEE4D4"/>
<circle cx="341.5" cy="78.5" r="2.5" fill="#43C7AD"/>
<circle cx="342.5" cy="156.5" r="1.5" fill="#43C7AD"/>
<circle cx="206.5" cy="79.5" r="1.5" fill="#B5EBAE"/>
<circle cx="63.5" cy="474.5" r="2.5" fill="#B5EBAE"/>
<circle cx="288" cy="755" r="4" fill="#B5EBAE"/>
<circle cx="233" cy="688" r="4" fill="#FEE4D4"/>
<circle cx="93" cy="652" r="4" fill="#B5EBAE"/>
<circle cx="37.5" cy="636.5" r="2.5" fill="#B5EBAE"/>
<circle cx="98" cy="635" r="2" fill="#B5EBAE"/>
<circle cx="89.5" cy="594.5" r="1.5" fill="#43C7AD"/>
<circle cx="123.5" cy="542.5" r="2.5" fill="#43C7AD"/>
<circle cx="172.5" cy="373.5" r="2.5" fill="#43C7AD"/>
<circle cx="219.5" cy="543.5" r="2.5" fill="#FEE4D4"/>
<circle cx="248.5" cy="512.5" r="2.5" fill="#B5EBAE"/>
<circle cx="304" cy="528" r="4" fill="#B5EBAE"/>
<circle cx="61" cy="815" r="4" fill="#B5EBAE"/>
<circle cx="308.5" cy="511.5" r="2.5" fill="#B5EBAE"/>
<circle cx="300.5" cy="470.5" r="1.5" fill="#43C7AD"/>
<circle cx="335.5" cy="419.5" r="2.5" fill="#43C7AD"/>
<circle cx="142.5" cy="428.5" r="2.5" fill="#43C7AD"/>
<circle cx="112.5" cy="721.5" r="2.5" fill="#43C7AD"/>
<circle cx="361.5" cy="777.5" r="2.5" fill="#43C7AD"/>
<circle cx="171.5" cy="615.5" r="2.5" fill="#43C7AD"/>
<circle cx="48.5" cy="743.5" r="2.5" fill="#43C7AD"/>
</g>
<defs>
<clipPath id="clip0_421_2002">
<rect width="393" height="852" fill="white"/>
</clipPath>
</defs>
</svg>
